<svg version="1.1" id="Aseir_Custom" xmlns="http://www.w3.org/2000/svg" xmlns:xlink="http://www.w3.org/1999/xlink" x="0px"
	 y="0px" viewBox="0 0 1000 371.7" style="enable-background:new 0 0 1000 371.7;" xml:space="preserve">
<style type="text/css">
	.st0{fill:#FFFFFF;}
	.st1{fill:#D4AF37;}
	.st2{fill:none;stroke:#D4AF37;stroke-width:2;stroke-miterlimit:10;}
</style>
<g id="Text">
	<path id="M" class="st0" d="M1000,360.6c0,0.5-0.1,0.8-0.3,0.8c-2.4,0-4.3,0-5.7-0.1l-7.7-0.1l-8.9,0.1c-1.5,0.1-3.5,0.1-6.1,0.1
		c-0.2,0-0.3-0.3-0.3-0.8c0-0.5,0.1-0.8,0.3-0.8c3.5,0,6-0.2,7.6-0.6c1.6-0.4,2.7-1.3,3.3-2.5c0.6-1.3,0.8-3.2,0.7-5.8l-1.4-44.8
		l-22.9,54.4c-0.2,0.3-0.5,0.5-0.9,0.5c-0.5,0-0.9-0.2,2.2-0.5l-24.7-49.2l-3.9-1.2l-1.3,37.8c-0.1,4.4,0.5,7.5,1.7,9.3
		c1.2,1.8,3.4,2.7,6.5,2.7c0.3,0,0.4,0.3,0.4,0.8c0,0.5-0.1,0.8-0.4,0.8c-1.8,0-3.2,0-4.2-0.1l-5.5-0.1l-5.2,0.1
		c-1.1,0.1-2.7,0.1-4.7,0.1c-0.2,0-0.3-0.3-0.3-0.8c0-0.5,0.1-0.8,0.3-0.8c3.1,0,5.3-0.9,6.6-2.7c1.3-1.8,2-4.9,2.1-9.3l1.4-41.5
		c-2.4-2.9-5.4-4.3-8.9-4.3c-0.3,0-0.4-0.3-0.4-0.8c0-0.5,0.1-0.8,0.4-0.8l6.3,0.1l5.7-0.1c1.1,0,2,0.4,2.7,1.2
		c0.7,0.8,1.8,2.7,3.3,5.6l22,44l20.1-47.5c0.3-1,0.9-1.7,1.6-2.3c0.7-0.6,1.5-0.9,2.3-0.9l6.5,0.1l8.5-0.1c0.2,0,0.3,0.3,0.3,0.8
		c0,0.5-0.1,0.8-0.3,0.8c-4,0-6.8,0.6-8.5,1.8c-1.7,1.2-2.4,3.5-2.2,7l1.3,40.1c0.2,2.7,0.5,4.6,1,5.9c0.5,1.2,1.4,2,2.7,2.5
		c1.3,0.4,3.5,0.6,6.6,0.6C999.9,359.8,1000,360.1,1000,360.6z"/>
	<path id="O" class="st0" d="M841.7,358.7c-4.7-2.9-8.4-6.7-10.9-11.5c-2.6-4.8-3.8-10-3.8-15.7c0-6.8,1.8-12.6,5.3-17.6
		c3.6-5,8.1-8.7,13.5-11.2c5.4-2.5,11-3.8,16.6-3.8c6.1,0,11.4,1.5,16,4.4c4.6,3,8.1,6.8,10.6,11.6c2.5,4.8,3.7,9.8,3.7,15
		c0,5.9-1.6,11.4-4.7,16.5c-3.1,5.1-7.4,9.1-12.7,12.1c-5.3,3-11.1,4.5-17.4,4.5C851.8,363,846.4,361.5,841.7,358.7z M878.7,353.2
		c4.3-4.8,6.4-11.4,6.4-19.9c0-5.8-1-11.1-3.1-16c-2.1-4.8-5.2-8.7-9.2-11.5c-4.1-2.9-9-4.3-14.7-4.3c-7.5,0-13.3,2.4-17.4,7.2
		c-4.1,4.8-6.2,11.3-6.2,19.7c0,5.9,1.1,11.3,3.2,16.1c2.1,4.9,5.2,8.7,9.3,11.6c4.1,2.9,8.9,4.3,14.5,4.3
		C868.6,360.4,874.4,358,878.7,353.2z"/>
	<path id="T" class="st0" d="M749,303.1c-1.9,0.8-3.2,2.3-4.1,4.4s-1.6,5.3-2.1,9.6c0,0.2-0.2,0.3-0.7,0.3s-0.7-0.1-0.7-0.3
		c0.3-1.9,0.5-5.1,0.8-9.4c0.3-4.4,0.5-7.7,0.5-10.1c0-0.4,0.3-0.7,0.8-0.7c0.5,0,0.8,0.2,0.8,0.7c0,1.1,0.7,1.8,2,2.1
		c1.3,0.3,2.9,0.5,4.8,0.5c7.6,0.2,14.2,0.3,19.7,0.3l11.3-0.1c1.6-0.1,3.6-0.1,6.1-0.1c3.1,0,5.4-0.2,6.8-0.6
		c1.4-0.4,2.4-1.2,2.8-2.5c0.2-0.3,0.5-0.4,0.9-0.4c0.4,0,0.7,0.1,0.7,0.4c-0.5,9.4-0.8,16.1-0.8,20.1c0,0.2-0.2,0.3-0.7,0.3
		c-0.5,0-0.7-0.1-0.7-0.3c0-4.3-0.3-7.6-1-9.6c-0.7-2.1-1.9-3.5-3.6-4.4c-1.8-0.8-4.5-1.2-8.3-1.2c-2.9,0-5,0.3-6.5,0.8
		c-1.5,0.5-2.5,1.4-3.1,2.7s-0.8,3.1-0.8,5.7v39.9c0,2.7,0.3,4.6,0.8,5.9c0.5,1.2,1.6,2,3.2,2.5c1.6,0.4,4.1,0.6,7.6,0.6
		c0.2,0,0.3,0.3,0.3,0.8c0,0.5-0.1,0.8-0.3,0.8c-2.7,0-4.8,0-6.3-0.1l-8.9-0.1l-8.5,0.1c-1.6,0.1-3.7,0.1-6.5,0.1
		c-0.2,0-0.3-0.3-0.3-0.8c0-0.5,0.1-0.8,0.3-0.8c3.4,0,5.9-0.2,7.5-0.6c1.6-0.4,2.7-1.3,3.3-2.5c0.6-1.3,0.9-3.2,0.9-5.8v-40.1
		c0-2.6-0.2-4.5-0.7-5.7c-0.4-1.2-1.3-2-2.7-2.5c-1.3-0.4-3.5-0.7-6.4-0.7C753.6,301.9,750.9,302.3,749,303.1z"/>
	<path id="S_1_" class="st0" d="M678.4,318.2c1.3,2,3,3.6,5,4.9c2,1.3,4.7,2.9,8.1,4.7c3.5,1.7,6.3,3.3,8.3,4.8
		c2.1,1.5,3.9,3.3,5.3,5.4c1.5,2.1,2.2,4.7,2.2,7.7c0,4.9-1.9,8.9-5.8,12.2c-3.9,3.3-9.1,5-15.7,5c-5.5,0-10.4-1.5-14.7-4.4
		c-0.4-0.3-0.7-0.6-0.8-0.9c-0.1-0.3-0.2-0.9-0.3-1.6l-1.6-12.4c-0.1-0.3,0.1-0.6,0.7-0.6s0.8,0,0.9,0.4c1,5,3.2,9.2,6.8,12.6
		c3.6,3.4,7.6,5.1,12,5.1c3.1,0,5.9-0.9,8.2-2.7c2.3-1.8,3.5-4.7,3.5-8.6c0-2.9-0.7-5.3-2.1-7.4c-1.4-2.1-3.1-3.8-5.1-5.3
		c-2-1.4-4.6-3-7.9-4.8c-3.5-1.9-6.2-3.6-8.2-5c-2-1.4-3.7-3.2-5.1-5.3c-1.4-2.1-2.1-4.6-2.1-7.6c0-4.9,1.8-8.8,5.5-11.5
		c3.6-2.7,8.1-4.1,13.4-4.1c3.9,0,8,1,12.2,3c0.8,0.4,1.3,0.8,1.5,1c0.2,0.2,0.4,0.6,0.5,1.1l1,11.1c0,0.3-0.2,0.6-0.7,0.7
		c-0.5,0.1-0.8,0-0.8-0.4c-0.6-3.8-2.4-7.2-5.5-10.2c-3-3-6.6-4.5-10.5-4.5c-3.2,0-5.7,1-7.5,3c-1.8,2-2.7,4.6-2.7,7.7
		C676.4,314,677.1,316.3,678.4,318.2z"/>
	<path id="U" class="st0" d="M621.5,306.1c-0.6-1.5-1.5-2.5-2.9-3.1s-3.4-0.9-6.1-0.9c-0.3,0-0.4-0.3-0.4-0.8c0-0.5,0.1-0.8,0.4-0.8
		l4.9,0.1c2.6,0.2,4.6,0.3,6.1,0.3c1.2,0,3-0.1,5.5-0.3l4.7-0.1c0.2,0,0.3,0.3,0.3,0.8c0,0.5-0.1,0.8-0.3,0.8
		c-2.4,0-4.3,0.3-5.5,0.9c-1.2,0.6-2.1,1.7-2.5,3.1c-0.5,1.5-0.7,3.6-0.7,6.5v24.9c0,8.1-2.3,14.4-6.8,18.9
		c-4.6,4.5-10.7,6.8-18.3,6.8c-4.9,0-9.3-1-13.2-2.9c-3.9-2-7.1-4.8-9.4-8.4c-2.3-3.6-3.4-8-3.4-13V311c0-2.6-0.3-4.5-0.8-5.7
		c-0.5-1.2-1.5-2.1-2.8-2.5c-1.3-0.5-3.5-0.7-6.4-0.7c-0.3,0-0.4-0.3-0.4-0.8c0-0.5,0.1-0.8,0.4-0.8l5.7,0.1
		c3.1,0.2,5.6,0.3,7.3,0.3c2.2,0,4.8-0.1,7.9-0.3l5.5-0.1c0.3,0,0.4,0.3,0.4,0.8c0,0.5-0.1,0.8-0.4,0.8c-2.9,0-5,0.3-6.4,0.8
		c-1.4,0.5-2.3,1.4-2.9,2.7c-0.5,1.3-0.8,3.2-0.8,5.8v24.1c0,8.2,2.1,14.2,6.4,18.1c4.3,3.9,9.6,5.9,16.1,5.9c6.2,0,11-1.8,14.5-5.5
		c3.5-3.7,5.2-9.1,5.2-16.1v-25.1C622.4,309.7,622.1,307.5,621.5,306.1z"/>
	<path id="C" class="st0" d="M515.2,299.9c3.8,0.7,6.8,1.6,9.2,2.8c0.6,0.3,1,0.5,1.2,0.8c0.2,0.3,0.3,0.7,0.4,1.4l1.4,13.4
		c0,0.3-0.2,0.4-0.7,0.5c-0.5,0.1-0.8,0-0.8-0.4c-1.2-6.1-3.9-10.6-8.1-13.5c-4.2-2.9-9.6-4.4-16.1-4.4c-4.7,0-8.9,1.2-12.8,3.6
		c-3.8,2.4-6.8,5.8-9,10.1c-2.2,4.3-3.3,9.1-3.3,14.4c0,5.5,1.1,10.7,3.3,15.7c2.2,5,5.4,9.1,9.8,12.2c4.3,3.2,9.6,4.8,15.6,4.8
		c5.5,0,10.1-1.5,13.9-4.5c3.8-3,6.4-7.6,7.8-13.7c0-0.3,0.2-0.4,0.6-0.4c0.2,0,0.4,0.1,0.6,0.2c0.2,0.1,0.3,0.2,0.3,0.3l-1.8,13.8
		c-0.1,0.7-0.2,1.2-0.4,1.4c-0.2,0.3-0.7,0.6-1.4,0.9c-6.7,2.3-13.6,3.5-20.8,3.5c-8.2,0-14.9-1.7-20.2-5
		c-5.3-3.3-9.1-7.4-11.5-12.4c-2.4-5-3.6-9.9-3.6-15c0-5.9,1.6-11.3,4.7-16.1c3.1-4.9,7.4-8.7,12.9-11.5c5.5-2.8,11.5-4.2,18.2-4.2
		C507.9,298.9,511.5,299.2,515.2,299.9z"/>

		<rect x="421.6" y="324.2" transform="matrix(0.7071 -0.7071 0.7071 0.7071 -108.283 399.1624)" class="st0" width="12.3" height="12.3"/>
	<path id="R" class="st0" d="M403.8,370.9c0,0.5-0.1,0.8-0.3,0.8l-12.9-0.8c-1.6,0-4.4-2.6-8.6-7.8c-4.2-5.2-18.1-21.9-23.9-31.1
		c-2.3,0.3-4.1,0.5-5.5,0.5c-1.2,0-3.1-0.1-5.7-0.3v18.6c0,2.7,0.2,4.6,0.7,5.9c0.5,1.2,1.4,2,2.7,2.5c1.3,0.4,3.5,0.6,6.6,0.6
		c0.3,0,0.4,0.3,0.4,0.8c0,0.5-0.1,0.8-0.4,0.8c-2.3,0-4.2,0-5.5-0.1l-7.9-0.1l-7.6,0.1c-1.4,0.1-3.3,0.1-5.9,0.1
		c-0.2,0-0.3-0.3-0.3-0.8c0-0.5,0.1-0.8,0.3-0.8c3,0,5.3-0.2,6.6-0.6c1.4-0.4,2.3-1.3,2.9-2.5c0.5-1.3,0.8-3.2,0.8-5.8V311
		c0-2.6-0.3-4.5-0.8-5.7c-0.5-1.2-1.5-2.1-2.9-2.5c-1.4-0.5-3.6-0.7-6.5-0.7c-0.2,0-0.3-0.3-0.3-0.8c0-0.5,0.1-0.8,0.3-0.8l5.9,0.1
		c3.1,0.2,5.6,0.3,7.4,0.3c1.6,0,3.1,0,4.4-0.1c1.3-0.1,2.4-0.2,3.3-0.3c2.7-0.3,5.2-0.4,7.6-0.4c5.3,0,9.4,1.1,12.2,3.3
		c2.8,2.2,4.2,5.3,4.2,9.4c0,3.6-1,6.8-2.9,9.8c-2,3-4.6,5.3-7.9,7.2c4.9,8,17.2,24.4,20.6,28.6c3.3,4.3,6.4,7.3,9.3,9.1
		c2.9,1.8,5.9,2.7,9.2,2.7C403.7,370.1,403.8,370.4,403.8,370.9z M353.6,330.3c5.5,0,9.3-1.2,11.5-3.6c2.2-2.4,3.3-5.9,3.3-10.5
		c0-9.6-4.3-14.5-13-14.5c-3.5,0-5.7,0.7-6.8,2.2c-1,1.5-1.6,3.9-1.6,7.3v18.5C348.6,330.1,350.8,330.3,353.6,330.3z"/>
	<path id="I" class="st0" d="M284.6,356.7c0.5,1.2,1.4,2,2.7,2.5c1.3,0.4,3.5,0.6,6.6,0.6c0.3,0,0.4,0.3,0.4,0.8
		c0,0.5-0.1,0.8-0.4,0.8c-2.3,0-4.2,0-5.5-0.1l-8.1-0.1l-7.7,0.1c-1.4,0.1-3.3,0.1-5.7,0.1c-0.2,0-0.3-0.3-0.3-0.8
		c0-0.5,0.1-0.8,0.3-0.8c3,0,5.3-0.2,6.6-0.6c1.4-0.4,2.3-1.3,2.8-2.5c0.5-1.3,0.7-3.2,0.7-5.8V311c0-2.6-0.2-4.5-0.7-5.7
		c-0.5-1.2-1.4-2.1-2.9-2.5c-1.4-0.5-3.6-0.7-6.6-0.7c-0.2,0-0.3-0.3-0.3-0.8c0-0.5,0.1-0.8,0.3-0.8l5.7,0.1
		c3.3,0.2,5.9,0.3,7.7,0.3c2.2,0,4.9-0.1,8.2-0.3l5.3-0.1c0.3,0,0.4,0.3,0.4,0.8c0,0.5-0.1,0.8-0.4,0.8c-2.9,0-5,0.3-6.4,0.8
		c-1.4,0.5-2.3,1.4-2.9,2.7c-0.5,1.3-0.8,3.2-0.8,5.8v39.6C283.9,353.6,284.1,355.5,284.6,356.7z"/>
	<path id="E" class="st0" d="M229.3,343.7c0.5,0,0.7,0.1,0.7,0.4c-0.6,6.3-0.9,11.4-0.9,15.4c0,0.7-0.1,1.2-0.4,1.5
		c-0.3,0.3-0.8,0.5-1.6,0.5h-47.4c-0.2,0-0.3-0.3-0.3-0.8c0-0.5,0.1-0.8,0.3-0.8c3,0,5.1-0.2,6.5-0.6c1.4-0.4,2.3-1.3,2.8-2.5
		s0.7-3.2,0.7-5.8V311c0-2.6-0.2-4.5-0.7-5.7c-0.5-1.2-1.4-2.1-2.8-2.5c-1.4-0.5-3.6-0.7-6.5-0.7c-0.2,0-0.3-0.3-0.3-0.8
		c0-0.5,0.1-0.8,0.3-0.8h45.1c0.9,0,1.3,0.3,1.3,1l0.1,8.1c0.1,1.7,0.1,3.7,0.1,6.3c0,0.3-0.3,0.4-0.8,0.4s-0.8-0.1-0.8-0.4
		c0-4.1-1.2-7.4-3.5-9.9c-2.3-2.5-5.4-3.8-9.2-3.8h-4.4c-3.3,0-5.7,0.2-7.2,0.7c-1.5,0.5-2.6,1.3-3.1,2.5c-0.6,1.2-0.8,3.1-0.8,5.7
		V329c8.9-0.1,14.8-0.3,18-0.7c3.1-0.3,4.9-0.5,5.2-0.5c0.4,0,0.7,0.9,0.7,2.7c0,1.9-0.2,2.9-0.7,2.9c-0.3,0-2.1-0.3-5.2-0.8
		c-3.1-0.5-9.1-0.8-18-0.9v18.6c0,2.5,0.3,4.4,0.8,5.7c0.6,1.3,1.6,2.1,3.2,2.6c1.6,0.5,4,0.7,7.2,0.7h7.6c3.4,0,6.3-1.4,8.7-4.2
		c2.4-2.8,4-6.5,4.7-11C228.6,343.8,228.8,343.7,229.3,343.7z"/>
	<path id="S" class="st0" d="M115.3,318.2c1.3,2,3,3.6,5,4.9c2,1.3,4.7,2.9,8.1,4.7c3.5,1.7,6.3,3.3,8.3,4.8
		c2.1,1.5,3.9,3.3,5.3,5.4c1.5,2.1,2.2,4.7,2.2,7.7c0,4.9-1.9,8.9-5.8,12.2c-3.9,3.3-9.1,5-15.7,5c-5.5,0-10.4-1.5-14.7-4.4
		c-0.4-0.3-0.7-0.6-0.8-0.9c-0.1-0.3-0.2-0.9-0.3-1.6l-1.6-12.4c-0.1-0.3,0.1-0.6,0.7-0.6c0.5-0.1,0.8,0,0.9,0.4
		c1,5,3.2,9.2,6.8,12.6c3.6,3.4,7.6,5.1,12,5.1c3.1,0,5.9-0.9,8.2-2.7c2.3-1.8,3.5-4.7,3.5-8.6c0-2.9-0.7-5.3-2.1-7.4
		c-1.4-2.1-3.1-3.8-5.1-5.3c-2-1.4-4.6-3-7.9-4.8c-3.5-1.9-6.2-3.6-8.2-5c-2-1.4-3.7-3.2-5.1-5.3c-1.4-2.1-2.1-4.6-2.1-7.6
		c0-4.9,1.8-8.8,5.5-11.5c3.6-2.7,8.1-4.1,13.4-4.1c3.9,0,8,1,12.2,3c0.8,0.4,1.3,0.8,1.5,1c0.2,0.2,0.4,0.6,0.5,1.1l1,11.1
		c0,0.3-0.2,0.6-0.7,0.7c-0.5,0.1-0.8,0-0.8-0.4c-0.6-3.8-2.4-7.2-5.5-10.2c-3-3-6.6-4.5-10.5-4.5c-3.2,0-5.7,1-7.5,3
		c-1.8,2-2.7,4.6-2.7,7.7C113.3,314,114,316.3,115.3,318.2z"/>
	<path id="A" class="st0" d="M72.8,360.6c0,0.5-0.2,0.8-0.5,0.8c-1.6,0-4.1-0.1-7.6-0.3c-3.3-0.2-5.7-0.3-7.3-0.3
		c-1.2,0-3,0.1-5.2,0.3c-2.1,0.2-3.7,0.3-4.8,0.3c-0.3,0-0.5-0.3-0.5-0.8c0-0.5,0.2-0.8,0.5-0.8c2.3,0,4.1-0.3,5.3-0.9
		c1.2-0.6,1.8-1.7,1.8-3.1c0-1.4-0.5-3.2-1.6-5.3l-9-19.5H24.7L19,345.4c-1.4,3.6-2.1,6.3-2.1,8.1c0,2.3,0.8,3.9,2.4,4.9
		c1.6,1,4,1.5,7.2,1.5c0.4,0,0.7,0.3,0.7,0.8c0,0.5-0.2,0.8-0.7,0.8c-1.3,0-3.1-0.1-5.3-0.3c-2.4-0.2-4.7-0.3-6.8-0.3
		c-2.2,0-4.7,0.1-7.7,0.3c-2.6,0.2-4.7,0.3-6.3,0.3c-0.3,0-0.5-0.3-0.5-0.8c0-0.5,0.2-0.8,0.5-0.8c2.7,0,4.8-0.4,6.4-1.1
		c1.6-0.7,3-2.2,4.3-4.4c1.3-2.2,2.9-5.6,4.8-10.2l18.6-45.7c0.2-0.3,0.4-0.5,0.8-0.5c0.3,0,0.6,0.2,0.7,0.5l21,45.1
		c2.3,4.9,4.1,8.4,5.4,10.5c1.3,2.2,2.7,3.7,4.2,4.5c1.4,0.8,3.3,1.2,5.7,1.2C72.6,359.8,72.8,360.1,72.8,360.6z M42.8,328.9
		l-9.2-20.1l-7.9,20.1H42.8z"/>
</g>
<g id="Pyramid">
	<polygon class="st1" points="646.3,248.8 353.7,248.8 435.1,108.1 442.6,108.1 365,242.3 635,242.3 557.4,108.1 564.9,108.1 	"/>
	<g>
		<polygon class="st1" points="678.8,97.9 634.1,98.4 589.4,98.7 500,98.9 410.6,98.7 365.9,98.4 321.2,97.9 365.9,97.4 410.6,97.2
			500,96.9 589.4,97.2 634.1,97.4 		"/>
	</g>
	<polyline class="st2" points="444.6,97.9 500,2 555.4,97.9 	"/>
</g>
</svg>
